<mxfile host="app.diagrams.net" modified="2024-06-03T15:25:47.175Z" agent="Mozilla/5.0 (Windows NT 10.0; Win64; x64) AppleWebKit/537.36 (KHTML, like Gecko) Chrome/125.0.0.0 Safari/537.36" etag="Ofa-ScqcVPKGGYJHCBb2" version="24.4.9" type="device">
  <diagram name="PÃ¡gina-1" id="7jd47xQ5mx8RkvU_KuzY">
    <mxGraphModel dx="1518" dy="669" grid="1" gridSize="10" guides="1" tooltips="1" connect="1" arrows="1" fold="1" page="1" pageScale="1" pageWidth="827" pageHeight="1169" math="0" shadow="0">
      <root>
        <mxCell id="0" />
        <mxCell id="1" parent="0" />
        <mxCell id="9qF68CqeZxAwOLs4HjIn-1" value="Propietario" style="swimlane;fontStyle=1;align=center;verticalAlign=top;childLayout=stackLayout;horizontal=1;startSize=26;horizontalStack=0;resizeParent=1;resizeParentMax=0;resizeLast=0;collapsible=1;marginBottom=0;whiteSpace=wrap;html=1;" vertex="1" parent="1">
          <mxGeometry x="50" y="60" width="250" height="220" as="geometry" />
        </mxCell>
        <mxCell id="9qF68CqeZxAwOLs4HjIn-2" value="- dni : String&lt;div&gt;- nombre : String&lt;/div&gt;&lt;div&gt;- direccion : String&lt;/div&gt;&lt;div&gt;- numMascotas : int&lt;/div&gt;" style="text;strokeColor=none;fillColor=none;align=left;verticalAlign=top;spacingLeft=4;spacingRight=4;overflow=hidden;rotatable=0;points=[[0,0.5],[1,0.5]];portConstraint=eastwest;whiteSpace=wrap;html=1;" vertex="1" parent="9qF68CqeZxAwOLs4HjIn-1">
          <mxGeometry y="26" width="250" height="64" as="geometry" />
        </mxCell>
        <mxCell id="9qF68CqeZxAwOLs4HjIn-3" value="" style="line;strokeWidth=1;fillColor=none;align=left;verticalAlign=middle;spacingTop=-1;spacingLeft=3;spacingRight=3;rotatable=0;labelPosition=right;points=[];portConstraint=eastwest;strokeColor=inherit;" vertex="1" parent="9qF68CqeZxAwOLs4HjIn-1">
          <mxGeometry y="90" width="250" height="8" as="geometry" />
        </mxCell>
        <mxCell id="9qF68CqeZxAwOLs4HjIn-4" value="+ getDni() : String&lt;div&gt;+ getNombre() : String&lt;/div&gt;&lt;div&gt;+ getDireccion() : String&lt;/div&gt;&lt;div&gt;+ getNumMascotas() : int&lt;/div&gt;&lt;div&gt;+ setDni(String dni) : void&lt;/div&gt;&lt;div&gt;+ setNombre(String nombre) : void&lt;/div&gt;&lt;div&gt;+ setDireccion(String direccion) : void&lt;/div&gt;&lt;div&gt;+ setNumMascotas(int numMascotas) : void&lt;/div&gt;" style="text;strokeColor=none;fillColor=none;align=left;verticalAlign=top;spacingLeft=4;spacingRight=4;overflow=hidden;rotatable=0;points=[[0,0.5],[1,0.5]];portConstraint=eastwest;whiteSpace=wrap;html=1;" vertex="1" parent="9qF68CqeZxAwOLs4HjIn-1">
          <mxGeometry y="98" width="250" height="122" as="geometry" />
        </mxCell>
        <mxCell id="9qF68CqeZxAwOLs4HjIn-5" value="Mascota" style="swimlane;fontStyle=1;align=center;verticalAlign=top;childLayout=stackLayout;horizontal=1;startSize=26;horizontalStack=0;resizeParent=1;resizeParentMax=0;resizeLast=0;collapsible=1;marginBottom=0;whiteSpace=wrap;html=1;" vertex="1" parent="1">
          <mxGeometry x="45" y="330" width="260" height="360" as="geometry" />
        </mxCell>
        <mxCell id="9qF68CqeZxAwOLs4HjIn-6" value="- id : int&lt;div&gt;- apodo : String&lt;/div&gt;&lt;div&gt;- nombreVulgar : String&lt;/div&gt;&lt;div&gt;- nombreCientifico : String&lt;/div&gt;&lt;div&gt;- sexo : char&lt;/div&gt;&lt;div&gt;- anioNacimiento : int&lt;/div&gt;&lt;div&gt;+ propietario : Propietario&lt;/div&gt;" style="text;strokeColor=none;fillColor=none;align=left;verticalAlign=top;spacingLeft=4;spacingRight=4;overflow=hidden;rotatable=0;points=[[0,0.5],[1,0.5]];portConstraint=eastwest;whiteSpace=wrap;html=1;" vertex="1" parent="9qF68CqeZxAwOLs4HjIn-5">
          <mxGeometry y="26" width="260" height="114" as="geometry" />
        </mxCell>
        <mxCell id="9qF68CqeZxAwOLs4HjIn-7" value="" style="line;strokeWidth=1;fillColor=none;align=left;verticalAlign=middle;spacingTop=-1;spacingLeft=3;spacingRight=3;rotatable=0;labelPosition=right;points=[];portConstraint=eastwest;strokeColor=inherit;" vertex="1" parent="9qF68CqeZxAwOLs4HjIn-5">
          <mxGeometry y="140" width="260" height="8" as="geometry" />
        </mxCell>
        <mxCell id="9qF68CqeZxAwOLs4HjIn-8" value="+ getId() : int&lt;div&gt;+ getApodo() : String&lt;/div&gt;&lt;div&gt;+ getNombreVulgar : String&lt;/div&gt;&lt;div&gt;+ getNombreCientifico : String&lt;/div&gt;&lt;div&gt;+ getSexo : char&lt;/div&gt;&lt;div&gt;+ getAnioNacimiento : int&lt;/div&gt;&lt;div&gt;+ getPropietario : Propietario&lt;/div&gt;&lt;div&gt;+ setId(int id) : void&lt;/div&gt;&lt;div&gt;+ setApodo(String apodo) : void&lt;/div&gt;&lt;div&gt;+ setNombreVulgar(String nVulgar) : void&lt;/div&gt;&lt;div&gt;+ setNombreCientifico(String nCientifico) : void&lt;/div&gt;&lt;div&gt;+ setSexo(char sexo) : void&lt;/div&gt;&lt;div&gt;+ setAnioNacimiento(int anio) : void&lt;/div&gt;&lt;div&gt;+ setPropietario(Propietario propietario) : void&lt;/div&gt;" style="text;strokeColor=none;fillColor=none;align=left;verticalAlign=top;spacingLeft=4;spacingRight=4;overflow=hidden;rotatable=0;points=[[0,0.5],[1,0.5]];portConstraint=eastwest;whiteSpace=wrap;html=1;" vertex="1" parent="9qF68CqeZxAwOLs4HjIn-5">
          <mxGeometry y="148" width="260" height="212" as="geometry" />
        </mxCell>
        <mxCell id="9qF68CqeZxAwOLs4HjIn-9" value="" style="endArrow=block;startArrow=block;endFill=1;startFill=1;html=1;rounded=0;exitX=0.499;exitY=1.005;exitDx=0;exitDy=0;exitPerimeter=0;entryX=0.5;entryY=0;entryDx=0;entryDy=0;" edge="1" parent="1" source="9qF68CqeZxAwOLs4HjIn-4" target="9qF68CqeZxAwOLs4HjIn-5">
          <mxGeometry width="160" relative="1" as="geometry">
            <mxPoint x="140" y="350" as="sourcePoint" />
            <mxPoint x="300" y="350" as="targetPoint" />
          </mxGeometry>
        </mxCell>
        <mxCell id="9qF68CqeZxAwOLs4HjIn-10" value="1...*" style="text;html=1;align=center;verticalAlign=middle;whiteSpace=wrap;rounded=0;" vertex="1" parent="1">
          <mxGeometry x="120" y="290" width="60" height="30" as="geometry" />
        </mxCell>
        <mxCell id="9qF68CqeZxAwOLs4HjIn-12" value="Mamifero" style="swimlane;fontStyle=1;align=center;verticalAlign=top;childLayout=stackLayout;horizontal=1;startSize=26;horizontalStack=0;resizeParent=1;resizeParentMax=0;resizeLast=0;collapsible=1;marginBottom=0;whiteSpace=wrap;html=1;" vertex="1" parent="1">
          <mxGeometry x="380" y="130" width="260" height="150" as="geometry" />
        </mxCell>
        <mxCell id="9qF68CqeZxAwOLs4HjIn-13" value="- raza : String&lt;div&gt;- pedigri : boolean&lt;/div&gt;" style="text;strokeColor=none;fillColor=none;align=left;verticalAlign=top;spacingLeft=4;spacingRight=4;overflow=hidden;rotatable=0;points=[[0,0.5],[1,0.5]];portConstraint=eastwest;whiteSpace=wrap;html=1;" vertex="1" parent="9qF68CqeZxAwOLs4HjIn-12">
          <mxGeometry y="26" width="260" height="44" as="geometry" />
        </mxCell>
        <mxCell id="9qF68CqeZxAwOLs4HjIn-14" value="" style="line;strokeWidth=1;fillColor=none;align=left;verticalAlign=middle;spacingTop=-1;spacingLeft=3;spacingRight=3;rotatable=0;labelPosition=right;points=[];portConstraint=eastwest;strokeColor=inherit;" vertex="1" parent="9qF68CqeZxAwOLs4HjIn-12">
          <mxGeometry y="70" width="260" height="8" as="geometry" />
        </mxCell>
        <mxCell id="9qF68CqeZxAwOLs4HjIn-15" value="+ getRaza() : String&lt;div&gt;+ getPedigri() : boolean&lt;/div&gt;&lt;div&gt;+ setRaza(String raza) : void&lt;/div&gt;&lt;div&gt;+ setPedigri(boolean pedigri) : void&lt;/div&gt;" style="text;strokeColor=none;fillColor=none;align=left;verticalAlign=top;spacingLeft=4;spacingRight=4;overflow=hidden;rotatable=0;points=[[0,0.5],[1,0.5]];portConstraint=eastwest;whiteSpace=wrap;html=1;" vertex="1" parent="9qF68CqeZxAwOLs4HjIn-12">
          <mxGeometry y="78" width="260" height="72" as="geometry" />
        </mxCell>
        <mxCell id="9qF68CqeZxAwOLs4HjIn-16" value="Ave" style="swimlane;fontStyle=1;align=center;verticalAlign=top;childLayout=stackLayout;horizontal=1;startSize=26;horizontalStack=0;resizeParent=1;resizeParentMax=0;resizeLast=0;collapsible=1;marginBottom=0;whiteSpace=wrap;html=1;" vertex="1" parent="1">
          <mxGeometry x="380" y="300" width="260" height="150" as="geometry" />
        </mxCell>
        <mxCell id="9qF68CqeZxAwOLs4HjIn-17" value="- tipoPlumaje : String&lt;div&gt;- habitos : String&lt;/div&gt;" style="text;strokeColor=none;fillColor=none;align=left;verticalAlign=top;spacingLeft=4;spacingRight=4;overflow=hidden;rotatable=0;points=[[0,0.5],[1,0.5]];portConstraint=eastwest;whiteSpace=wrap;html=1;" vertex="1" parent="9qF68CqeZxAwOLs4HjIn-16">
          <mxGeometry y="26" width="260" height="44" as="geometry" />
        </mxCell>
        <mxCell id="9qF68CqeZxAwOLs4HjIn-18" value="" style="line;strokeWidth=1;fillColor=none;align=left;verticalAlign=middle;spacingTop=-1;spacingLeft=3;spacingRight=3;rotatable=0;labelPosition=right;points=[];portConstraint=eastwest;strokeColor=inherit;" vertex="1" parent="9qF68CqeZxAwOLs4HjIn-16">
          <mxGeometry y="70" width="260" height="8" as="geometry" />
        </mxCell>
        <mxCell id="9qF68CqeZxAwOLs4HjIn-19" value="+ getTipoPlumaje() : String&lt;div&gt;+ getHabitos() : String&lt;/div&gt;&lt;div&gt;+ setTipoPlumaje(String tipo) : void&lt;/div&gt;&lt;div&gt;+ setHabitos(String habitos) : void&lt;/div&gt;" style="text;strokeColor=none;fillColor=none;align=left;verticalAlign=top;spacingLeft=4;spacingRight=4;overflow=hidden;rotatable=0;points=[[0,0.5],[1,0.5]];portConstraint=eastwest;whiteSpace=wrap;html=1;" vertex="1" parent="9qF68CqeZxAwOLs4HjIn-16">
          <mxGeometry y="78" width="260" height="72" as="geometry" />
        </mxCell>
        <mxCell id="9qF68CqeZxAwOLs4HjIn-20" value="Reptil" style="swimlane;fontStyle=1;align=center;verticalAlign=top;childLayout=stackLayout;horizontal=1;startSize=26;horizontalStack=0;resizeParent=1;resizeParentMax=0;resizeLast=0;collapsible=1;marginBottom=0;whiteSpace=wrap;html=1;" vertex="1" parent="1">
          <mxGeometry x="380" y="470" width="260" height="100" as="geometry" />
        </mxCell>
        <mxCell id="9qF68CqeZxAwOLs4HjIn-21" value="- tipoEscamas : String" style="text;strokeColor=none;fillColor=none;align=left;verticalAlign=top;spacingLeft=4;spacingRight=4;overflow=hidden;rotatable=0;points=[[0,0.5],[1,0.5]];portConstraint=eastwest;whiteSpace=wrap;html=1;" vertex="1" parent="9qF68CqeZxAwOLs4HjIn-20">
          <mxGeometry y="26" width="260" height="24" as="geometry" />
        </mxCell>
        <mxCell id="9qF68CqeZxAwOLs4HjIn-22" value="" style="line;strokeWidth=1;fillColor=none;align=left;verticalAlign=middle;spacingTop=-1;spacingLeft=3;spacingRight=3;rotatable=0;labelPosition=right;points=[];portConstraint=eastwest;strokeColor=inherit;" vertex="1" parent="9qF68CqeZxAwOLs4HjIn-20">
          <mxGeometry y="50" width="260" height="8" as="geometry" />
        </mxCell>
        <mxCell id="9qF68CqeZxAwOLs4HjIn-23" value="+ getTipoEscamas() : String&lt;div&gt;+ setTipoEscamas(String tipo) : void&lt;/div&gt;" style="text;strokeColor=none;fillColor=none;align=left;verticalAlign=top;spacingLeft=4;spacingRight=4;overflow=hidden;rotatable=0;points=[[0,0.5],[1,0.5]];portConstraint=eastwest;whiteSpace=wrap;html=1;" vertex="1" parent="9qF68CqeZxAwOLs4HjIn-20">
          <mxGeometry y="58" width="260" height="42" as="geometry" />
        </mxCell>
        <mxCell id="9qF68CqeZxAwOLs4HjIn-24" value="Pez" style="swimlane;fontStyle=1;align=center;verticalAlign=top;childLayout=stackLayout;horizontal=1;startSize=26;horizontalStack=0;resizeParent=1;resizeParentMax=0;resizeLast=0;collapsible=1;marginBottom=0;whiteSpace=wrap;html=1;" vertex="1" parent="1">
          <mxGeometry x="380" y="585" width="260" height="100" as="geometry" />
        </mxCell>
        <mxCell id="9qF68CqeZxAwOLs4HjIn-25" value="- tipoAgua : String" style="text;strokeColor=none;fillColor=none;align=left;verticalAlign=top;spacingLeft=4;spacingRight=4;overflow=hidden;rotatable=0;points=[[0,0.5],[1,0.5]];portConstraint=eastwest;whiteSpace=wrap;html=1;" vertex="1" parent="9qF68CqeZxAwOLs4HjIn-24">
          <mxGeometry y="26" width="260" height="24" as="geometry" />
        </mxCell>
        <mxCell id="9qF68CqeZxAwOLs4HjIn-26" value="" style="line;strokeWidth=1;fillColor=none;align=left;verticalAlign=middle;spacingTop=-1;spacingLeft=3;spacingRight=3;rotatable=0;labelPosition=right;points=[];portConstraint=eastwest;strokeColor=inherit;" vertex="1" parent="9qF68CqeZxAwOLs4HjIn-24">
          <mxGeometry y="50" width="260" height="8" as="geometry" />
        </mxCell>
        <mxCell id="9qF68CqeZxAwOLs4HjIn-27" value="+ getTipoAgua() : String&lt;div&gt;+ setTipoAgua(String tipo) : void&lt;/div&gt;" style="text;strokeColor=none;fillColor=none;align=left;verticalAlign=top;spacingLeft=4;spacingRight=4;overflow=hidden;rotatable=0;points=[[0,0.5],[1,0.5]];portConstraint=eastwest;whiteSpace=wrap;html=1;" vertex="1" parent="9qF68CqeZxAwOLs4HjIn-24">
          <mxGeometry y="58" width="260" height="42" as="geometry" />
        </mxCell>
        <mxCell id="9qF68CqeZxAwOLs4HjIn-32" value="Extends" style="endArrow=block;endSize=16;endFill=0;html=1;rounded=0;exitX=1;exitY=0;exitDx=0;exitDy=0;entryX=-0.006;entryY=0.081;entryDx=0;entryDy=0;entryPerimeter=0;" edge="1" parent="1" source="9qF68CqeZxAwOLs4HjIn-5" target="9qF68CqeZxAwOLs4HjIn-15">
          <mxGeometry width="160" relative="1" as="geometry">
            <mxPoint x="470" y="440" as="sourcePoint" />
            <mxPoint x="630" y="440" as="targetPoint" />
          </mxGeometry>
        </mxCell>
        <mxCell id="9qF68CqeZxAwOLs4HjIn-33" value="Extends" style="endArrow=block;endSize=16;endFill=0;html=1;rounded=0;exitX=1.004;exitY=0.676;exitDx=0;exitDy=0;entryX=-0.002;entryY=1.13;entryDx=0;entryDy=0;entryPerimeter=0;exitPerimeter=0;" edge="1" parent="1" source="9qF68CqeZxAwOLs4HjIn-6" target="9qF68CqeZxAwOLs4HjIn-17">
          <mxGeometry width="160" relative="1" as="geometry">
            <mxPoint x="315" y="340" as="sourcePoint" />
            <mxPoint x="388" y="224" as="targetPoint" />
          </mxGeometry>
        </mxCell>
        <mxCell id="9qF68CqeZxAwOLs4HjIn-34" value="Extends" style="endArrow=block;endSize=16;endFill=0;html=1;rounded=0;exitX=1.007;exitY=0.237;exitDx=0;exitDy=0;entryX=0.005;entryY=-0.041;entryDx=0;entryDy=0;entryPerimeter=0;exitPerimeter=0;" edge="1" parent="1" source="9qF68CqeZxAwOLs4HjIn-8" target="9qF68CqeZxAwOLs4HjIn-23">
          <mxGeometry width="160" relative="1" as="geometry">
            <mxPoint x="325" y="350" as="sourcePoint" />
            <mxPoint x="398" y="234" as="targetPoint" />
          </mxGeometry>
        </mxCell>
        <mxCell id="9qF68CqeZxAwOLs4HjIn-35" value="Extends" style="endArrow=block;endSize=16;endFill=0;html=1;rounded=0;exitX=0.997;exitY=0.818;exitDx=0;exitDy=0;entryX=0.001;entryY=0.202;entryDx=0;entryDy=0;entryPerimeter=0;exitPerimeter=0;" edge="1" parent="1" source="9qF68CqeZxAwOLs4HjIn-8" target="9qF68CqeZxAwOLs4HjIn-27">
          <mxGeometry width="160" relative="1" as="geometry">
            <mxPoint x="317" y="538" as="sourcePoint" />
            <mxPoint x="391" y="536" as="targetPoint" />
          </mxGeometry>
        </mxCell>
        <mxCell id="9qF68CqeZxAwOLs4HjIn-36" value="&lt;span style=&quot;color: rgb(0, 0, 0); font-family: Helvetica; font-size: 12px; font-style: normal; font-variant-ligatures: normal; font-variant-caps: normal; font-weight: 400; letter-spacing: normal; orphans: 2; text-align: center; text-indent: 0px; text-transform: none; widows: 2; word-spacing: 0px; -webkit-text-stroke-width: 0px; white-space: normal; background-color: rgb(251, 251, 251); text-decoration-thickness: initial; text-decoration-style: initial; text-decoration-color: initial; display: inline !important; float: none;&quot;&gt;1&lt;/span&gt;" style="text;whiteSpace=wrap;html=1;" vertex="1" parent="1">
          <mxGeometry x="330" y="300" width="50" height="40" as="geometry" />
        </mxCell>
        <mxCell id="9qF68CqeZxAwOLs4HjIn-37" value="&lt;span style=&quot;color: rgb(0, 0, 0); font-family: Helvetica; font-size: 12px; font-style: normal; font-variant-ligatures: normal; font-variant-caps: normal; font-weight: 400; letter-spacing: normal; orphans: 2; text-align: center; text-indent: 0px; text-transform: none; widows: 2; word-spacing: 0px; -webkit-text-stroke-width: 0px; white-space: normal; background-color: rgb(251, 251, 251); text-decoration-thickness: initial; text-decoration-style: initial; text-decoration-color: initial; display: inline !important; float: none;&quot;&gt;1&lt;/span&gt;" style="text;whiteSpace=wrap;html=1;" vertex="1" parent="1">
          <mxGeometry x="330" y="420" width="50" height="40" as="geometry" />
        </mxCell>
        <mxCell id="9qF68CqeZxAwOLs4HjIn-38" value="&lt;span style=&quot;color: rgb(0, 0, 0); font-family: Helvetica; font-size: 12px; font-style: normal; font-variant-ligatures: normal; font-variant-caps: normal; font-weight: 400; letter-spacing: normal; orphans: 2; text-align: center; text-indent: 0px; text-transform: none; widows: 2; word-spacing: 0px; -webkit-text-stroke-width: 0px; white-space: normal; background-color: rgb(251, 251, 251); text-decoration-thickness: initial; text-decoration-style: initial; text-decoration-color: initial; display: inline !important; float: none;&quot;&gt;1&lt;/span&gt;" style="text;whiteSpace=wrap;html=1;" vertex="1" parent="1">
          <mxGeometry x="320" y="530" width="50" height="40" as="geometry" />
        </mxCell>
        <mxCell id="9qF68CqeZxAwOLs4HjIn-39" value="&lt;span style=&quot;color: rgb(0, 0, 0); font-family: Helvetica; font-size: 12px; font-style: normal; font-variant-ligatures: normal; font-variant-caps: normal; font-weight: 400; letter-spacing: normal; orphans: 2; text-align: center; text-indent: 0px; text-transform: none; widows: 2; word-spacing: 0px; -webkit-text-stroke-width: 0px; white-space: normal; background-color: rgb(251, 251, 251); text-decoration-thickness: initial; text-decoration-style: initial; text-decoration-color: initial; display: inline !important; float: none;&quot;&gt;1&lt;/span&gt;" style="text;whiteSpace=wrap;html=1;" vertex="1" parent="1">
          <mxGeometry x="320" y="660" width="50" height="40" as="geometry" />
        </mxCell>
        <mxCell id="9qF68CqeZxAwOLs4HjIn-40" value="&lt;font style=&quot;font-size: 36px;&quot;&gt;PetCare UML&lt;/font&gt;" style="text;align=center;fontStyle=1;verticalAlign=middle;spacingLeft=3;spacingRight=3;strokeColor=none;rotatable=0;points=[[0,0.5],[1,0.5]];portConstraint=eastwest;html=1;" vertex="1" parent="1">
          <mxGeometry x="470" y="70" width="80" height="26" as="geometry" />
        </mxCell>
      </root>
    </mxGraphModel>
  </diagram>
</mxfile>
